<svg xmlns="http://www.w3.org/2000/svg" version="1.1" xmlns:xlink="http://www.w3.org/1999/xlink" xmlns:svgjs="http://svgjs.com/svgjs" width="1440" height="560" preserveAspectRatio="none" viewBox="0 0 1440 560"><g mask="url(&quot;#SvgjsMask1005&quot;)" fill="none"><rect width="1440" height="560" x="0" y="0" fill="rgba(97, 99, 98, 1)"></rect><path d="M0,523.069C107.97,528.074,222.663,546.183,316.166,491.963C411.037,436.949,458.052,329.743,504.617,230.451C551.598,130.272,607.426,24.321,586.421,-84.315C565.681,-191.583,460.967,-255.081,394.042,-341.439C322.364,-433.929,288.273,-567.839,179.089,-609.92C69.056,-652.328,-53.279,-598.614,-163.332,-556.259C-266.393,-516.595,-348.66,-446.688,-432.327,-374.614C-530.047,-290.435,-653.375,-222.316,-693.345,-99.688C-735.453,29.501,-729.477,186.28,-651.392,297.481C-575.031,406.226,-423.436,420.016,-297.874,463.5C-200.215,497.321,-103.239,518.284,0,523.069" fill="#4e4f4e"></path><path d="M1440 1200.312C1562.431 1216.109 1696.077 1184.711 1789.98 1104.579 1880.575 1027.27 1872.033 887.928 1928.776 783.217 1991.4070000000002 667.639 2145.317 590.746 2139.593 459.414 2133.927 329.414 1987.325 257.915 1901.615 160.00799999999998 1816.4189999999999 62.68900000000002 1759.3690000000001-69.505 1637.831-113.75199999999995 1514.289-158.72799999999995 1376.924-120.62699999999995 1253.243-76.03499999999997 1134.8229999999999-33.34000000000003 1028.851 37.23400000000004 949.043 134.58300000000003 870.646 230.211 816.765 345.687 806.488 468.915 796.541 588.176 830.362 707.789 892.717 809.936 950.8589999999999 905.181 1052.771 956.381 1143.617 1021.181 1239.538 1089.6019999999999 1323.146 1185.2350000000001 1440 1200.312" fill="#747776"></path></g><defs><mask id="SvgjsMask1005"><rect width="1440" height="560" fill="#ffffff"></rect></mask></defs></svg>